<svg xmlns:inkscape="http://www.inkscape.org/namespaces/inkscape" xmlns:sodipodi="http://sodipodi.sourceforge.net/DTD/sodipodi-0.dtd" xmlns="http://www.w3.org/2000/svg" xmlns:svg="http://www.w3.org/2000/svg" width="67.455444mm" height="66.74279mm" viewBox="0 0 67.455444 66.74279" version="1.1" id="svg1" xml:space="preserve" sodipodi:docname="noexcuse-logo_white.svg" inkscape:version="1.4.4 (dcaf3e7, 2026-05-05)"><sodipodi:namedview id="namedview1" pagecolor="#ffffff" bordercolor="#000000" borderopacity="0.25" inkscape:showpageshadow="2" inkscape:pageopacity="0.0" inkscape:pagecheckerboard="0" inkscape:deskcolor="#d1d1d1" inkscape:document-units="mm" inkscape:zoom="3.2337963" inkscape:cx="555.53901" inkscape:cy="556.77595" inkscape:window-width="3840" inkscape:window-height="2054" inkscape:window-x="-11" inkscape:window-y="2149" inkscape:window-maximized="1" inkscape:current-layer="layer1"><inkscape:page x="0" y="0" width="67.455444" height="66.74279" id="page2" margin="0" bleed="0"/></sodipodi:namedview><defs id="defs1"/><g inkscape:label="Layer 1" inkscape:groupmode="layer" id="layer1" transform="translate(-114.57563,-107.00633)"><path style="fill:#ffffff" d="m 137.70133,173.00841 c -8.11418,-2.67547 -15.09252,-8.53752 -19.07481,-16.02349 -1.17606,-2.21079 -1.29731,-2.55877 -0.76057,-2.18282 0.98816,0.69214 2.08473,0.5452 5.54788,-0.74337 4.93257,-1.83532 4.75125,-2.08497 3.06692,4.22277 -1.67281,6.26459 2.55505,7.00167 4.59678,0.8014 2.07617,-6.30483 3.09532,-7.58764 8.19562,-10.31584 8.40726,-4.49712 9.50189,-8.59864 4.24007,-15.88739 -2.83156,-3.92231 -2.94194,-5.12643 -1.00975,-11.01517 1.34036,-4.08503 1.38629,-4.84155 0.34452,-5.67509 -1.5282,-1.22276 -2.8545,-0.34857 -3.97437,2.61957 -2.03617,5.39674 -2.03016,5.39551 -5.48947,1.12183 -2.7945,-3.45235 -4.06505,-3.87554 -5.29791,-1.76458 -0.64854,1.11046 -0.41896,1.66415 2.23178,5.38248 2.5036,3.51191 2.51879,3.483 -1.97695,3.7619 -4.98583,0.30932 -6.55561,1.93799 -4.11845,4.27295 l 0.75146,0.71994 3.51936,-0.15025 c 6.43588,-0.27477 7.77407,0.0909 10.90307,2.97975 3.7543,3.46609 3.65272,5.66659 -0.38548,8.35118 -4.66407,3.10067 -6.29399,2.95473 -11.89303,-1.06485 -5.73153,-4.1147 -7.51196,-4.44508 -8.10035,-1.50314 -0.19045,0.95223 0.28196,1.49706 3.58102,4.12996 3.16997,2.52988 3.16782,2.54166 -0.82715,4.53306 -3.14278,1.5666 -4.70769,2.77975 -4.70769,3.64948 0,0.94351 -0.28064,0.26868 -1.10003,-2.6451 -6.27858,-22.32685 9.48265,-43.57726 32.32086,-43.57726 22.83339,0 38.75428,21.49726 32.2997,43.61281 -0.42471,1.45521 -0.78167,2.46275 -0.79324,2.23897 -0.0523,-1.01052 -1.52121,-2.13282 -4.47607,-3.41978 -4.59292,-2.00039 -4.56979,-1.93358 -1.50915,-4.35903 3.77037,-2.98788 4.69887,-4.58788 3.36366,-5.79623 -1.27676,-1.15545 -2.475,-0.68634 -7.32136,2.86631 -5.26859,3.86217 -5.45059,3.8954 -10.94705,1.99891 -11.02435,-3.80382 -12.92022,-1.23997 -12.97948,17.55266 -0.022,6.9682 -0.12727,7.43257 -2.14663,9.46662 -2.76442,2.78453 -2.99747,2.85517 -6.07371,1.84084 z m 15.52345,-34.30088 c 0.4006,-0.26249 1.50679,-1.20255 2.45819,-2.08902 5.08842,-4.74118 4.79512,-4.62384 11.60046,-4.64097 l 4.57898,-0.0115 0.77883,-0.85272 c 2.15225,-2.3564 0.75417,-3.66407 -4.27977,-4.003 -4.58308,-0.30857 -4.50507,-0.13561 -1.83993,-4.07944 2.35246,-3.48113 2.6149,-4.41163 1.56075,-5.53373 -1.3111,-1.39559 -2.61128,-0.71711 -5.11161,2.66745 -2.99341,4.05202 -3.07278,4.04276 -4.88094,-0.56945 -2.36419,-6.03054 -6.81093,-5.3215 -4.57331,0.72922 0.29598,0.80037 0.87215,2.34818 1.28036,3.43959 1.51688,4.0555 1.12491,5.56528 -2.57591,9.92187 -2.03483,2.3954 -3.09135,5.3969 -2.02482,5.75241 0.55122,0.18374 2.26363,-0.22939 3.02872,-0.73069 z m 1.80676,33.99545 c -3.9479,-3.05702 -4.12305,-3.62551 -4.27692,-13.88175 -0.18912,-12.60598 0.25113,-13.14725 7.74618,-9.52366 3.98971,1.92889 5.06951,3.2882 7.03987,8.8622 1.53127,4.33184 2.40172,5.38752 3.92276,4.75749 1.7781,-0.73652 1.90637,-1.62575 0.78165,-5.41895 -1.49441,-5.04 -1.37709,-5.16921 3.24292,-3.57187 3.13263,1.08308 4.8601,1.31362 5.4519,0.7276 0.1837,-0.1819 0.0555,0.26458 -0.28488,0.99219 -3.75871,8.03463 -11.43548,14.72484 -20.00112,17.43072 -1.20696,0.38128 -2.21809,0.6836 -2.24696,0.67183 -0.0289,-0.0118 -0.6478,-0.48238 -1.3754,-1.0458 z" id="path1"/></g></svg>