<?xml version="1.0" encoding="UTF-8" standalone="no"?>
<!-- Created with Inkscape (http://www.inkscape.org/) -->

<svg
   width="47.736614mm"
   height="48.068752mm"
   viewBox="0 0 47.736614 48.068752"
   version="1.1"
   id="svg1"
   xml:space="preserve"
   inkscape:version="1.4.4 (dcaf3e7, 2026-05-05)"
   sodipodi:docname="noexcuse-logopage.svg"
   inkscape:export-filename="noexcuse-logopage.pdf"
   inkscape:export-xdpi="241.90475"
   inkscape:export-ydpi="241.90475"
   xmlns:inkscape="http://www.inkscape.org/namespaces/inkscape"
   xmlns:sodipodi="http://sodipodi.sourceforge.net/DTD/sodipodi-0.dtd"
   xmlns="http://www.w3.org/2000/svg"
   xmlns:svg="http://www.w3.org/2000/svg"><sodipodi:namedview
     id="namedview1"
     pagecolor="#ffffff"
     bordercolor="#000000"
     borderopacity="0.25"
     inkscape:showpageshadow="2"
     inkscape:pageopacity="0.0"
     inkscape:pagecheckerboard="0"
     inkscape:deskcolor="#d1d1d1"
     inkscape:document-units="mm"
     inkscape:zoom="3.2337963"
     inkscape:cx="363.81389"
     inkscape:cy="608.1088"
     inkscape:window-width="1976"
     inkscape:window-height="1240"
     inkscape:window-x="897"
     inkscape:window-y="2202"
     inkscape:window-maximized="0"
     inkscape:current-layer="layer1"><inkscape:page
       x="0"
       y="0"
       width="47.736614"
       height="48.068752"
       id="page2"
       margin="0"
       bleed="0" /></sodipodi:namedview><defs
     id="defs1" /><g
     inkscape:label="Layer 1"
     inkscape:groupmode="layer"
     id="layer1"
     transform="translate(-15.063767,-17.071016)"><path
       d="m 29.973036,64.192756 c 0,-0.52083 1.064106,-1.680983 2.364681,-2.578105 4.235888,-2.921917 4.193125,-2.808338 4.727367,-12.555654 l 0.484308,-8.836206 1.636678,-1.30957 c 2.038603,-1.631146 3.807568,-1.649758 8.284932,-0.08706 l 3.518434,1.227955 4.317125,-2.916548 c 2.374419,-1.604107 4.575832,-2.830314 4.892027,-2.724915 0.316202,0.105357 0.843171,0.636259 1.171054,1.179672 0.498819,0.826738 0.150335,1.383881 -2.134476,3.412586 l -2.73062,2.424509 3.147914,1.392151 c 2.641685,1.168291 3.147921,1.62078 3.147921,2.81378 0,1.164723 -0.264815,1.421591 -1.465537,1.421591 -0.806042,0 -2.435116,-0.290477 -3.620158,-0.645531 -1.185042,-0.355055 -2.269021,-0.531156 -2.408828,-0.391331 -0.139824,0.139843 0.115849,1.483796 0.568128,2.986619 0.768745,2.554346 0.753904,2.800849 -0.227746,3.782487 -1.029181,1.029187 -1.072424,1.026118 -2.172349,-0.154564 -0.617244,-0.662523 -1.436145,-2.325675 -1.819775,-3.695868 -0.891675,-3.184755 -2.912783,-5.323712 -6.22012,-6.582813 -4.219792,-1.606455 -4.333046,-1.426553 -4.333046,6.8829 0,4.270597 0.26231,7.800143 0.641557,8.632496 0.352856,0.774445 1.980315,2.330114 3.616572,3.457042 5.015137,3.454057 4.433346,3.811387 -6.205513,3.811387 -8.273714,0 -9.18053,-0.09358 -9.18053,-0.946965 z m -7.779741,-11.28194 c -0.538318,-0.648619 -0.539466,-1.420475 -0.0055,-3.646595 0.372583,-1.553105 0.54024,-2.961004 0.372571,-3.128672 -0.167665,-0.167602 -1.598134,0.124702 -3.178809,0.649718 -2.584741,0.85851 -2.959974,0.868564 -3.7287,0.09989 -1.274595,-1.274597 -0.525066,-2.399489 2.681496,-4.024365 l 2.879962,-1.4594 -2.706882,-2.381926 c -2.37479,-2.089708 -2.614159,-2.493657 -1.951097,-3.292593 1.176148,-1.417178 2.346987,-1.109751 6.213928,1.631626 4.118486,2.919683 5.918247,3.020643 9.201806,0.516158 2.560164,-1.952741 2.4744,-3.518909 -0.331524,-6.053885 -2.161746,-1.953018 -2.355919,-2.012128 -6.60862,-2.012128 -3.318892,0 -4.558796,-0.213699 -5.112791,-0.881225 -1.196088,-1.441214 0.05747,-2.708807 2.87735,-2.909568 1.345913,-0.0959 2.650958,-0.374784 2.900098,-0.619899 0.24914,-0.245139 -0.311921,-1.651819 -1.246804,-3.125957 -1.578379,-2.488864 -1.635537,-2.751288 -0.800247,-3.674277 1.122642,-1.240507 2.238412,-0.722728 4.318004,2.003762 0.828113,1.085715 1.703224,1.974025 1.944687,1.974025 0.241463,0 0.770734,-1.005109 1.176159,-2.233543 0.852277,-2.582442 1.759379,-3.504423 3.169918,-3.221981 1.226342,0.24556 1.219159,1.730533 -0.03028,6.260059 l -0.912583,3.308298 2.223535,3.680103 c 2.795612,4.626888 2.882855,6.550278 0.415253,9.154462 -0.994558,1.049625 -2.934989,2.516935 -4.312067,3.260731 -2.810344,1.517927 -4.73299,3.969271 -5.579844,7.114261 -0.553287,2.054734 -1.824455,3.835754 -2.737706,3.835754 -0.246688,0 -0.755808,-0.370238 -1.131378,-0.822787 z M 39.99407,34.120659 c 0.003,-0.688535 1.002106,-2.50377 2.21967,-4.033866 1.217564,-1.530084 2.216415,-3.17153 2.21967,-3.647628 0.003,-0.476122 -0.519612,-2.421819 -1.161912,-4.32378 -1.31575,-3.896149 -1.11225,-5.268384 0.742066,-5.003816 0.872545,0.124492 1.642251,1.009145 2.556592,2.938397 l 1.3082,2.760285 2.314354,-2.660628 c 1.648053,-1.894616 2.582292,-2.55676 3.245025,-2.299958 1.592672,0.617209 1.558588,1.748828 -0.133014,4.416206 -0.897741,1.415598 -1.632264,2.661468 -1.632264,2.768566 0,0.107038 1.365467,0.365385 3.034367,0.573887 2.341309,0.292533 3.1143,0.630981 3.384339,1.481814 0.649569,2.046597 -0.657231,2.718459 -5.287471,2.718459 h -4.29647 L 45.3281,32.590581 c -3.477474,3.043063 -5.343711,3.578405 -5.334036,1.530078 z"
       style="fill:#222222;fill-opacity:1;stroke-width:2.10292"
       id="path1-1" /></g></svg>
