<?xml version="1.0" encoding="UTF-8" standalone="no"?>
<!-- Created with Inkscape (http://www.inkscape.org/) -->

<svg
   width="49.863541mm"
   height="50.210743mm"
   viewBox="0 0 49.863541 50.210743"
   version="1.1"
   id="svg1"
   xml:space="preserve"
   inkscape:version="1.4.4 (dcaf3e7, 2026-05-05)"
   sodipodi:docname="noexcuse-logopage.svg"
   inkscape:export-filename="noexcuse-logopage.pdf"
   inkscape:export-xdpi="241.90475"
   inkscape:export-ydpi="241.90475"
   xmlns:inkscape="http://www.inkscape.org/namespaces/inkscape"
   xmlns:sodipodi="http://sodipodi.sourceforge.net/DTD/sodipodi-0.dtd"
   xmlns="http://www.w3.org/2000/svg"
   xmlns:svg="http://www.w3.org/2000/svg"><sodipodi:namedview
     id="namedview1"
     pagecolor="#ffffff"
     bordercolor="#000000"
     borderopacity="0.25"
     inkscape:showpageshadow="2"
     inkscape:pageopacity="0.0"
     inkscape:pagecheckerboard="0"
     inkscape:deskcolor="#d1d1d1"
     inkscape:document-units="mm"
     inkscape:zoom="3.2337963"
     inkscape:cx="363.81389"
     inkscape:cy="608.1088"
     inkscape:window-width="1976"
     inkscape:window-height="1240"
     inkscape:window-x="897"
     inkscape:window-y="2202"
     inkscape:window-maximized="0"
     inkscape:current-layer="layer1"><inkscape:page
       x="0"
       y="0"
       width="49.863541"
       height="50.210743"
       id="page2"
       margin="0"
       bleed="0" /></sodipodi:namedview><defs
     id="defs1" /><g
     inkscape:label="Layer 1"
     inkscape:groupmode="layer"
     id="layer1"
     transform="translate(-78.29291,-15.108335)"><path
       d="m 93.866307,64.329866 c 0,-0.54404 1.111527,-1.755891 2.470054,-2.692989 4.424619,-3.052121 4.379959,-2.93348 4.937999,-13.11514 l 0.50589,-9.229956 1.70961,-1.367925 c 2.12944,-1.703831 3.97723,-1.723273 8.65412,-0.09094 l 3.67521,1.282667 4.50951,-3.046505 c 2.48022,-1.675592 4.77973,-2.956439 5.11001,-2.846344 0.3303,0.110052 0.88075,0.664612 1.22325,1.23224 0.52104,0.863582 0.15703,1.445551 -2.22959,3.564656 l -2.8523,2.532548 3.28818,1.454187 c 2.7594,1.220351 3.2882,1.693003 3.2882,2.939164 0,1.216625 -0.27662,1.48494 -1.53084,1.48494 -0.84196,0 -2.54363,-0.303422 -3.78148,-0.674298 -1.23785,-0.370876 -2.37013,-0.554824 -2.51617,-0.408768 -0.14606,0.146074 0.12102,1.549915 0.59345,3.119699 0.80299,2.668177 0.7875,2.925664 -0.2379,3.951038 -1.07504,1.075049 -1.12021,1.071842 -2.26915,-0.161451 -0.64475,-0.692039 -1.50014,-2.429303 -1.90087,-3.86056 -0.93141,-3.326671 -3.04257,-5.560941 -6.49729,-6.876149 -4.40783,-1.678041 -4.52613,-1.490122 -4.52613,7.189609 0,4.460898 0.274,8.147724 0.67015,9.017168 0.36858,0.808955 2.06856,2.433946 3.77773,3.611091 5.23861,3.607979 4.6309,3.981226 -6.48204,3.981226 -8.642376,0 -9.589603,-0.09775 -9.589603,-0.989163 z M 85.739888,52.545191 c -0.562301,-0.677523 -0.563497,-1.483774 -0.0055,-3.809092 0.389189,-1.622313 0.564318,-3.092942 0.389181,-3.268088 -0.175144,-0.175071 -1.669347,0.130265 -3.32046,0.67867 -2.699925,0.896766 -3.091881,0.907268 -3.894857,0.104343 -1.331388,-1.331394 -0.548468,-2.506419 2.800985,-4.203701 l 3.008296,-1.524432 -2.827506,-2.488068 c -2.480611,-2.182827 -2.730645,-2.604775 -2.038034,-3.43931 1.228553,-1.480329 2.451563,-1.159203 6.49082,1.704337 4.302013,3.049786 6.181969,3.155239 9.611848,0.539158 2.674228,-2.03976 2.584648,-3.675718 -0.346294,-6.323656 -2.258075,-2.040046 -2.460906,-2.101791 -6.903104,-2.101791 -3.466784,0 -4.761947,-0.22322 -5.340628,-0.920492 -1.249383,-1.505436 0.06005,-2.829514 3.005567,-3.039222 1.405888,-0.10017 2.769091,-0.391484 3.02933,-0.647522 0.260246,-0.256063 -0.325816,-1.725425 -1.302357,-3.265253 -1.64872,-2.599769 -1.708418,-2.873888 -0.835909,-3.838006 1.172672,-1.295785 2.338157,-0.754933 4.51042,2.093051 0.865009,1.134096 1.779115,2.061991 2.031339,2.061991 0.252224,0 0.805079,-1.049898 1.228569,-2.333072 0.890259,-2.697519 1.837774,-3.660584 3.311158,-3.365556 1.280991,0.256503 1.273481,1.807647 -0.0316,6.539013 l -0.953247,3.455719 2.322618,3.844092 c 2.920187,4.833067 3.011317,6.842168 0.433747,9.562391 -1.038864,1.096397 -3.065752,2.629098 -4.504185,3.406031 -2.93558,1.585575 -4.9439,4.146147 -5.82849,7.431287 -0.577938,2.146295 -1.905753,4.006672 -2.859697,4.006672 -0.257682,0 -0.789488,-0.386736 -1.181796,-0.859444 z M 104.33387,32.917729 c 0.003,-0.719217 1.04676,-2.61534 2.31857,-4.213619 1.27183,-1.598266 2.31519,-3.312857 2.31859,-3.810171 0.003,-0.497338 -0.54277,-2.529737 -1.21369,-4.51645 -1.37438,-4.069766 -1.16182,-5.50315 0.77513,-5.226792 0.91143,0.13004 1.71544,1.054114 2.67052,3.069335 l 1.3665,2.883286 2.41748,-2.779188 c 1.72149,-1.979042 2.69736,-2.670693 3.38962,-2.402446 1.66365,0.644712 1.62804,1.826757 -0.13894,4.612995 -0.93774,1.478679 -1.70499,2.780067 -1.70499,2.891937 0,0.111808 1.42631,0.381666 3.16957,0.59946 2.44564,0.305568 3.25308,0.659097 3.53515,1.547845 0.67851,2.137795 -0.68651,2.839596 -5.52308,2.839596 h -4.48793 l -3.32079,2.905953 c -3.63243,3.178664 -5.58182,3.737864 -5.57172,1.598259 z"
       style="fill:#f0ffff;fill-opacity:1;stroke-width:2.19662"
       id="path1-1-2" /></g></svg>
