<?xml version="1.0" encoding="UTF-8" standalone="no"?>
<!-- Created with Inkscape (http://www.inkscape.org/) -->

<svg
   width="118.79791mm"
   height="68.5271mm"
   viewBox="0 0 118.79791 68.5271"
   version="1.1"
   id="svg1"
   xml:space="preserve"
   inkscape:version="1.4.4 (dcaf3e7, 2026-05-05)"
   sodipodi:docname="noexcuse-logopage.svg"
   inkscape:export-filename="noexcuse-logopage.pdf"
   inkscape:export-xdpi="241.90475"
   inkscape:export-ydpi="241.90475"
   xmlns:inkscape="http://www.inkscape.org/namespaces/inkscape"
   xmlns:sodipodi="http://sodipodi.sourceforge.net/DTD/sodipodi-0.dtd"
   xmlns="http://www.w3.org/2000/svg"
   xmlns:svg="http://www.w3.org/2000/svg"><sodipodi:namedview
     id="namedview1"
     pagecolor="#ffffff"
     bordercolor="#000000"
     borderopacity="0.25"
     inkscape:showpageshadow="2"
     inkscape:pageopacity="0.0"
     inkscape:pagecheckerboard="0"
     inkscape:deskcolor="#d1d1d1"
     inkscape:document-units="mm"
     inkscape:zoom="3.2337963"
     inkscape:cx="363.81389"
     inkscape:cy="608.1088"
     inkscape:window-width="1976"
     inkscape:window-height="1240"
     inkscape:window-x="897"
     inkscape:window-y="2202"
     inkscape:window-maximized="0"
     inkscape:current-layer="layer1"><inkscape:page
       x="0"
       y="0"
       width="118.79791"
       height="68.5271"
       id="page2"
       margin="0"
       bleed="0" /></sodipodi:namedview><defs
     id="defs1" /><g
     inkscape:label="Layer 1"
     inkscape:groupmode="layer"
     id="layer1"
     transform="translate(-48.962215,-207.00108)"><path
       style="fill:#000000;fill-opacity:1"
       d="m 48.962218,241.26462 v -34.26354 h 59.398962 59.39895 v 34.26354 34.26354 H 108.36118 48.962218 Z m 32.88711,27.55608 c 3.12398,-1.30529 4.01789,-6.31898 1.62504,-9.11448 -1.12345,-1.3125 -2.30099,-1.73157 -4.47635,-1.59305 -2.9935,0.19061 -4.62418,2.13323 -4.62418,5.50874 0,3.55848 1.82603,5.55114 5.0901,5.55462 0.84142,9e-4 1.91485,-0.15923 2.38539,-0.35583 z m -3.1932,-2.20087 c -1.02892,-0.41399 -1.45718,-3.26367 -0.74619,-4.9653 0.64171,-1.53584 2.4519,-1.5943 3.22253,-0.10408 0.65408,1.26485 0.41717,4.09239 -0.39821,4.75265 -0.58926,0.47715 -1.37991,0.59766 -2.07813,0.31673 z m 19.96438,2.27692 c 0.40966,-0.15478 1.07317,-0.59465 1.474472,-0.9775 l 0.72965,-0.69607 -0.846362,-0.87321 -0.84635,-0.87321 -0.58488,0.54947 c -0.32169,0.30221 -1.0671,0.61415 -1.65646,0.6932 -0.93878,0.12592 -1.17151,0.0438 -1.87809,-0.66279 -0.44359,-0.44359 -0.80652,-0.93119 -0.80652,-1.08355 0,-0.17463 1.24696,-0.30441 3.37343,-0.35109 l 3.373452,-0.074 0.0933,-0.66145 c 0.15874,-1.12502 -0.49495,-3.40462 -1.225122,-4.27238 -0.38258,-0.45466 -1.08428,-0.98907 -1.55934,-1.18756 -1.1111,-0.46424 -3.29992,-0.4627 -4.41477,0.003 -2.16248,0.90354 -3.44414,3.94391 -2.82631,6.70463 0.58018,2.59255 2.4175,4.01215 5.21862,4.03217 0.90004,0.006 1.9716,-0.11495 2.38126,-0.26972 z m -4.41454,-6.74207 c 0,-0.57691 1.19904,-1.70777 1.81074,-1.70777 0.65822,0 1.53429,0.75902 1.75597,1.52136 0.16794,0.57753 0.11727,0.59531 -1.6968,0.59531 -1.5102,0 -1.86991,-0.0787 -1.86991,-0.4089 z m 25.370132,6.50956 c 1.12236,-0.57259 1.81604,-1.4716 2.05416,-2.66221 l 0.15853,-0.79262 h -1.49483 c -1.34653,0 -1.5195,0.0649 -1.74351,0.65407 -0.44382,1.16734 -2.33878,1.2029 -2.96371,0.0556 -0.41061,-0.75385 -0.4053,-3.85022 0.008,-4.60917 0.65067,-1.19507 2.45368,-0.98566 2.9591,0.34369 0.22017,0.57911 0.39901,0.64538 1.74174,0.64538 h 1.49638 l -0.15068,-0.92856 c -0.20057,-1.23596 -1.0277,-2.34929 -2.13615,-2.87528 -1.17245,-0.55637 -3.65778,-0.554 -4.83496,0.005 -3.56274,1.69063 -3.59173,8.48501 -0.0437,10.23343 1.23412,0.60815 3.68949,0.57394 4.94968,-0.069 z m 9.09186,0.13111 c 0.40018,-0.20876 0.7276,-0.26756 0.7276,-0.13066 0,0.13689 0.71437,0.24889 1.5875,0.24889 h 1.5875 v -5.42396 -5.42396 h -1.5875 -1.5875 v 3.95375 c 0,3.78575 -0.025,3.97125 -0.58804,4.36562 -0.75271,0.52723 -1.64167,0.52563 -2.17119,-0.004 -0.34084,-0.34084 -0.41577,-1.12763 -0.41577,-4.36563 v -3.94985 h -1.5875 -1.5875 v 4.37877 c 0,4.80627 0.19044,5.5956 1.52468,6.31956 0.92874,0.50393 3.15908,0.521 4.09772,0.0314 z m 12.4439,0.02 c 1.43519,-0.61153 2.17431,-1.6271 2.17431,-2.98754 0,-1.00798 -0.13121,-1.30825 -0.85382,-1.9539 -0.4728,-0.42245 -1.53544,-0.95042 -2.38124,-1.18311 -2.30701,-0.6347 -2.71805,-0.854 -2.71805,-1.45018 0,-0.7644 1.11563,-1.23772 1.98437,-0.84189 0.36381,0.16576 0.66146,0.48253 0.66146,0.70393 0,0.31948 0.35858,0.40255 1.73761,0.40255 1.67653,0 1.73158,-0.0209 1.5657,-0.59532 -0.53998,-1.86973 -2.11132,-2.84325 -4.5902,-2.84386 -2.71135,-6.6e-4 -4.53394,1.3823 -4.53394,3.44031 0,1.2523 1.35949,2.49274 3.32571,3.0345 2.48702,0.68524 2.80635,0.86491 2.71163,1.52566 -0.17858,1.2457 -2.66096,1.2945 -3.12973,0.0615 -0.22309,-0.58677 -0.39909,-0.65406 -1.71044,-0.65406 -1.21613,0 -1.46159,0.0778 -1.46076,0.46302 0.002,0.81875 1.00625,2.14353 2.03829,2.68819 1.20426,0.63556 3.90142,0.73459 5.1791,0.19018 z m 11.43473,-0.13027 c 1.71824,-0.78162 1.91258,-1.18863 1.08535,-2.27318 l -0.6982,-0.91539 -0.9581,0.65018 c -1.52885,1.0375 -3.18721,0.75779 -3.92109,-0.66137 l -0.41634,-0.80511 h 3.44638 3.44638 v -1.50397 c 0,-3.13913 -1.56931,-4.9002 -4.51494,-5.06664 -3.68289,-0.2081 -5.74988,2.11386 -5.49167,6.16906 0.13295,2.08781 1.00838,3.52273 2.6428,4.33174 1.45862,0.722 3.88243,0.75564 5.37943,0.0747 z m -4.71297,-6.6274 c 0.21292,-0.81417 1.10948,-1.61081 1.81286,-1.61081 0.78565,0 1.70949,0.85792 1.70949,1.5875 0,0.47809 -0.17639,0.52917 -1.82732,0.52917 -1.66898,0 -1.81585,-0.0438 -1.69503,-0.50586 z m -81.349832,2.96302 0.0732,-3.89285 0.70959,-0.3979 c 0.53338,-0.29909 0.89476,-0.33286 1.45521,-0.13599 l 0.74562,0.26191 0.073,4.02883 0.073,4.02884 h 1.7129 1.7129 v -3.58701 c 0,-4.26514 -0.29821,-5.69661 -1.37556,-6.60314 -0.62427,-0.52529 -1.07336,-0.65777 -2.22976,-0.65777 -0.79642,0 -1.79932,0.18165 -2.22866,0.40367 -0.69971,0.36184 -0.78061,0.36184 -0.78061,0 0,-0.31698 -0.3409,-0.40367 -1.5875,-0.40367 h -1.5875 v 5.42396 5.42396 h 1.58043 1.58043 z m 39.122262,2.43763 c 0.4517,-0.80036 0.8607,-1.45521 0.90889,-1.45521 0.0482,0 0.46228,0.65485 0.9202,1.45521 l 0.83259,1.45521 h 1.70968 c 1.97467,0 1.99748,0.37456 -0.20426,-3.35432 l -1.27756,-2.16369 1.45415,-2.51864 c 0.79978,-1.38525 1.45415,-2.58447 1.45415,-2.66495 0,-0.0805 -0.74414,-0.1459 -1.65364,-0.14539 l -1.65365,9.2e-4 -0.78153,1.44886 -0.78154,1.44885 -0.8031,-1.44978 -0.80311,-1.44978 h -1.6565 c -0.91108,0 -1.65651,0.0713 -1.65651,0.15852 0,0.0872 0.65942,1.27897 1.46538,2.6484 l 1.46538,2.48989 -1.10354,1.91566 c -0.60695,1.05361 -1.33561,2.30261 -1.61925,2.77555 l -0.51571,0.8599 h 1.73911 1.73911 z m 9.23743,-24.57867 c 0,-0.0576 -0.56555,-0.46765 -1.25678,-0.91124 -0.69122,-0.4436 -1.67349,-1.23632 -2.18281,-1.76161 l -0.92604,-0.95508 v -5.34357 -5.34358 l 0.75944,-0.0868 c 0.99907,-0.11418 3.96124,1.34732 4.6241,2.28147 0.27933,0.39366 0.84335,1.66241 1.25338,2.81945 0.7157,2.01961 1.38503,3.05566 1.97407,3.05566 0.15213,0 0.56289,-0.28629 0.9128,-0.63619 l 0.63619,-0.6362 -0.53435,-1.88822 c -0.29389,-1.03852 -0.49629,-1.99244 -0.44978,-2.11981 0.0465,-0.12737 0.56082,-0.0549 1.1429,0.16114 3.01185,1.11761 3.91961,0.9615 3.78525,-0.65096 -0.077,-0.9243 -0.17841,-1.02048 -2.02061,-1.91673 l -1.93953,-0.94361 1.47663,-1.26152 c 1.66967,-1.42644 2.04628,-2.29658 1.33445,-3.08314 -0.25809,-0.28518 -0.67667,-0.51851 -0.93019,-0.51851 -0.25352,0 -1.51105,0.77391 -2.79451,1.71979 -2.72249,2.00644 -3.10554,2.06974 -6.19445,1.0238 -2.33152,-0.78949 -3.39912,-0.72495 -4.53309,0.27402 -1.40142,1.23459 -1.53978,1.85073 -1.71228,7.62513 -0.11592,3.8804 -0.26174,5.52719 -0.52708,5.95242 -0.20175,0.32333 -1.05089,1.08459 -1.88696,1.69169 -0.83607,0.60709 -1.63324,1.20576 -1.77148,1.33036 -0.14024,0.1264 2.40362,0.22654 5.75468,0.22654 3.30333,0 6.00605,-0.0471 6.00605,-0.10471 z m -15.425322,-6.8406 c 0.29806,-0.32742 0.810122,-1.42875 1.137912,-2.4474 0.80353,-2.49702 1.43649,-3.25903 3.89236,-4.68599 4.18168,-2.42972 4.77564,-4.60642 2.26517,-8.30119 -1.45569,-2.1424 -1.53152,-2.87278 -0.60935,-5.86963 0.68511,-2.22648 0.57536,-3.14981 -0.40359,-3.39552 -0.92498,-0.23215 -1.52381,0.38604 -2.21788,2.28961 -0.31569,0.8658 -0.61625,1.57418 -0.66791,1.57418 -0.0517,0 -0.70211,-0.77391 -1.44545,-1.71979 -1.404922,-1.7877 -1.895572,-2.01973 -2.710852,-1.28191 -0.72503,0.65615 -0.59288,1.37997 0.57179,3.13177 1.200782,1.80611 1.127472,1.93472 -1.12179,1.968 -0.88611,0.0131 -1.41284,0.17467 -1.78594,0.54776 -0.63683,0.63684 -0.66163,1.01605 -0.11728,1.79322 0.35858,0.51195 0.65814,0.59008 2.3151,0.60381 3.456732,0.0286 4.372232,0.2964 5.654812,1.65386 1.33547,1.41346 1.46093,2.27004 0.47665,3.25432 -0.95039,0.95039 -2.94291,1.77571 -3.84933,1.59443 -0.411,-0.0822 -1.716512,-0.86809 -2.901112,-1.74642 -2.63463,-1.95346 -3.69468,-2.08511 -4.09051,-0.50799 -0.15007,0.59795 0.0398,0.87583 1.468,2.14799 l 1.64036,1.4612 -1.88951,0.99291 c -1.96062,1.03028 -2.53394,1.83469 -1.96026,2.7504 0.40727,0.65009 1.30821,0.65358 3.02456,0.0117 0.86277,-0.32266 1.63595,-0.51937 1.71819,-0.43713 0.1301,0.1301 -0.13126,1.67646 -0.59696,3.53194 -0.0946,0.37694 0.0466,0.7684 0.40728,1.12908 0.70653,0.70652 1.12213,0.69652 1.79554,-0.0432 z m 13.133112,-13.38364 c 2.5564,-2.41968 2.56931,-2.42522 5.65227,-2.42522 2.63395,0 2.72639,-0.0202 3.16653,-0.69194 0.40424,-0.61695 0.41164,-0.76632 0.0683,-1.37807 -0.43764,-0.77973 -1.15324,-1.04076 -2.95684,-1.07861 -0.69123,-0.0145 -1.25677,-0.0819 -1.25677,-0.14974 0,-0.0678 0.47625,-0.86022 1.05833,-1.76081 1.19393,-1.84725 1.28084,-2.33036 0.53983,-3.00097 -0.81721,-0.73956 -1.6331,-0.33232 -2.93521,1.46506 l -1.17564,1.62282 -0.46941,-1.15189 c -0.72288,-1.77391 -1.08164,-2.39924 -1.54102,-2.68607 -0.55976,-0.3495 -1.72516,-0.0386 -1.93842,0.51717 -0.0935,0.24353 0.20551,1.5479 0.66436,2.89861 0.9436,2.77767 0.91201,3.77083 -0.15657,4.92325 -1.6387,1.76726 -2.43208,3.63884 -1.80737,4.26356 0.53268,0.53267 1.56203,0.0769 3.08766,-1.36715 z"
       id="path2" /></g></svg>
