<?xml version="1.0" encoding="UTF-8" standalone="no"?>
<!-- Created with Inkscape (http://www.inkscape.org/) -->

<svg
   width="49.864059mm"
   height="50.210781mm"
   viewBox="0 0 49.864059 50.210781"
   version="1.1"
   id="svg1"
   xml:space="preserve"
   inkscape:version="1.4.4 (dcaf3e7, 2026-05-05)"
   sodipodi:docname="noexcuse-logopage.svg"
   inkscape:export-filename="noexcuse-logopage.pdf"
   inkscape:export-xdpi="241.90475"
   inkscape:export-ydpi="241.90475"
   xmlns:inkscape="http://www.inkscape.org/namespaces/inkscape"
   xmlns:sodipodi="http://sodipodi.sourceforge.net/DTD/sodipodi-0.dtd"
   xmlns="http://www.w3.org/2000/svg"
   xmlns:svg="http://www.w3.org/2000/svg"><sodipodi:namedview
     id="namedview1"
     pagecolor="#ffffff"
     bordercolor="#000000"
     borderopacity="0.25"
     inkscape:showpageshadow="2"
     inkscape:pageopacity="0.0"
     inkscape:pagecheckerboard="0"
     inkscape:deskcolor="#d1d1d1"
     inkscape:document-units="mm"
     inkscape:zoom="3.2337963"
     inkscape:cx="363.81389"
     inkscape:cy="608.1088"
     inkscape:window-width="1976"
     inkscape:window-height="1240"
     inkscape:window-x="897"
     inkscape:window-y="2202"
     inkscape:window-maximized="0"
     inkscape:current-layer="layer1"><inkscape:page
       x="0"
       y="0"
       width="49.864059"
       height="50.210781"
       id="page2"
       margin="0"
       bleed="0" /></sodipodi:namedview><defs
     id="defs1" /><g
     inkscape:label="Layer 1"
     inkscape:groupmode="layer"
     id="layer1"
     transform="translate(-142.32506,-15.358145)"><path
       d="m 157.89896,64.579675 c 0,-0.54404 1.11153,-1.75589 2.47005,-2.69299 4.42464,-3.05212 4.37998,-2.93348 4.93802,-13.11514 l 0.50589,-9.22995 1.70961,-1.36793 c 2.12944,-1.70383 3.97723,-1.72327 8.65412,-0.0909 l 3.67521,1.28267 4.50951,-3.04651 c 2.48022,-1.675588 4.77973,-2.956435 5.11001,-2.84634 0.3303,0.110052 0.88075,0.664612 1.22325,1.23224 0.52104,0.86358 0.15703,1.44555 -2.22959,3.56466 l -2.8523,2.53254 3.28818,1.45419 c 2.7594,1.22035 3.2882,1.693 3.2882,2.93916 0,1.21663 -0.27662,1.48495 -1.53084,1.48495 -0.84196,0 -2.54363,-0.30343 -3.78148,-0.6743 -1.23785,-0.37088 -2.37013,-0.55483 -2.51617,-0.40877 -0.14606,0.14607 0.12102,1.54991 0.59345,3.1197 0.80299,2.66818 0.7875,2.92566 -0.2379,3.95104 -1.07504,1.07505 -1.12021,1.07184 -2.26915,-0.16146 -0.64475,-0.69203 -1.50014,-2.4293 -1.90087,-3.86055 -0.93141,-3.32668 -3.04257,-5.56095 -6.49729,-6.87615 -4.40783,-1.67804 -4.52613,-1.49013 -4.52613,7.1896 0,4.4609 0.274,8.14773 0.67015,9.01717 0.36858,0.80896 2.06856,2.43395 3.77773,3.61109 5.23861,3.60798 4.6309,3.98123 -6.48204,3.98123 -8.64239,0 -9.58962,-0.0977 -9.58962,-0.98916 z m -8.12642,-11.78467 c -0.5623,-0.67753 -0.5635,-1.48378 -0.006,-3.80909 0.38919,-1.62232 0.56432,-3.09295 0.38918,-3.26809 -0.17514,-0.17507 -1.66935,0.13026 -3.32046,0.67867 -2.69992,0.89676 -3.09188,0.90726 -3.89486,0.10434 -1.33138,-1.33139 -0.54846,-2.50642 2.80099,-4.2037 l 3.00829,-1.52443 -2.8275,-2.48807 c -2.48061,-2.18283 -2.73065,-2.60478 -2.03804,-3.439311 1.22856,-1.480329 2.45157,-1.159203 6.49082,1.704341 4.30202,3.04978 6.18197,3.15524 9.61185,0.53915 2.67424,-2.039756 2.58466,-3.675714 -0.34629,-6.323652 -2.25808,-2.040046 -2.46091,-2.101791 -6.90311,-2.101791 -3.46678,0 -4.76194,-0.22322 -5.34062,-0.920492 -1.24939,-1.505436 0.06,-2.829514 3.00556,-3.039222 1.40589,-0.10017 2.76909,-0.391484 3.02933,-0.647522 0.26025,-0.256063 -0.32581,-1.725425 -1.30235,-3.265253 -1.64872,-2.599769 -1.70842,-2.873888 -0.83591,-3.838006 1.17267,-1.295785 2.33815,-0.754933 4.51042,2.093051 0.86501,1.134096 1.77911,2.061991 2.03134,2.061991 0.25222,0 0.80508,-1.049898 1.22857,-2.333072 0.89025,-2.697519 1.83777,-3.660584 3.31116,-3.365556 1.281,0.256503 1.27349,1.807647 -0.0316,6.539013 l -0.95325,3.455719 2.32263,3.844092 c 2.92019,4.833067 3.01132,6.84217 0.43375,9.56239 -1.03887,1.0964 -3.06577,2.6291 -4.5042,3.40603 -2.93558,1.58558 -4.9439,4.14615 -5.82849,7.43129 -0.57794,2.14629 -1.90576,4.00667 -2.8597,4.00667 -0.25768,0 -0.78949,-0.38673 -1.1818,-0.85944 z m 18.594,-19.627465 c 0.003,-0.719217 1.04676,-2.61534 2.31857,-4.213619 1.27183,-1.598266 2.31519,-3.312857 2.31859,-3.810171 0.003,-0.497338 -0.54277,-2.529737 -1.21369,-4.51645 -1.37438,-4.069766 -1.16182,-5.50315 0.77513,-5.226792 0.91143,0.13004 1.71544,1.054114 2.67052,3.069335 l 1.3665,2.883286 2.41748,-2.779188 c 1.72149,-1.979042 2.69736,-2.670693 3.38962,-2.402446 1.66365,0.644712 1.62804,1.826757 -0.13894,4.612995 -0.93774,1.478679 -1.70499,2.780067 -1.70499,2.891937 0,0.111808 1.42631,0.381666 3.16957,0.59946 2.44564,0.305568 3.25308,0.659097 3.53515,1.547845 0.67851,2.137795 -0.68651,2.839596 -5.52308,2.839596 h -4.48793 l -3.32079,2.905953 c -3.63243,3.178664 -5.58182,3.737864 -5.57172,1.598259 z"
       style="fill:#3a4e58;fill-opacity:1;stroke-width:2.19662"
       id="path1-1-2-6" /></g></svg>
