<?xml version="1.0" encoding="UTF-8" standalone="no"?>
<!-- Created with Inkscape (http://www.inkscape.org/) -->

<svg
   width="125.69864mm"
   height="23.507528mm"
   viewBox="0 0 125.69864 23.507528"
   version="1.1"
   id="svg1"
   xml:space="preserve"
   inkscape:version="1.4.4 (dcaf3e7, 2026-05-05)"
   sodipodi:docname="noexcuse-logopage.svg"
   inkscape:export-filename="noexcuse-logopage.pdf"
   inkscape:export-xdpi="241.90475"
   inkscape:export-ydpi="241.90475"
   xmlns:inkscape="http://www.inkscape.org/namespaces/inkscape"
   xmlns:sodipodi="http://sodipodi.sourceforge.net/DTD/sodipodi-0.dtd"
   xmlns="http://www.w3.org/2000/svg"
   xmlns:svg="http://www.w3.org/2000/svg"><sodipodi:namedview
     id="namedview1"
     pagecolor="#ffffff"
     bordercolor="#000000"
     borderopacity="0.25"
     inkscape:showpageshadow="2"
     inkscape:pageopacity="0.0"
     inkscape:pagecheckerboard="0"
     inkscape:deskcolor="#d1d1d1"
     inkscape:document-units="mm"
     inkscape:zoom="3.2337963"
     inkscape:cx="363.81389"
     inkscape:cy="608.1088"
     inkscape:window-width="1976"
     inkscape:window-height="1240"
     inkscape:window-x="897"
     inkscape:window-y="2202"
     inkscape:window-maximized="0"
     inkscape:current-layer="layer1"><inkscape:page
       x="0"
       y="0"
       width="125.69864"
       height="23.507528"
       id="page2"
       margin="0"
       bleed="0" /></sodipodi:namedview><defs
     id="defs1" /><g
     inkscape:label="Layer 1"
     inkscape:groupmode="layer"
     id="layer1"
     transform="translate(-42.395631,-88.922678)"><path
       style="fill:#222222;fill-opacity:1"
       d="m 85.825094,111.89795 c -2.185768,-1.08195 -3.304839,-3.87914 -2.768982,-6.92124 0.482501,-2.73921 2.023394,-4.32547 4.484944,-4.617 1.85948,-0.22023 3.510984,0.29157 4.665143,1.44573 2.758771,2.75877 2.012332,8.63421 -1.2873,10.13272 -1.47728,0.6709 -3.692534,0.65342 -5.093805,-0.0402 z m 4.121932,-1.69443 c 1.406487,-0.72733 2.091157,-4.04302 1.246798,-6.03794 -0.580872,-1.37239 -1.372824,-1.90973 -2.814642,-1.90973 -1.441818,0 -2.23377,0.53734 -2.814642,1.90973 -0.824336,1.94762 -0.162771,5.28882 1.193067,6.02553 0.905845,0.49221 2.251468,0.49744 3.189419,0.0124 z m 12.322784,1.73872 c -2.06538,-0.95324 -3.04272,-2.68937 -3.04272,-5.40507 0,-2.87867 1.0377,-4.86295 3.01201,-5.75951 3.57394,-1.622984 7.01954,0.68798 7.0364,4.71934 l 0.006,1.38906 h -3.83648 -3.83648 l 9.9e-4,0.72761 c 0.002,1.21534 0.90123,2.37938 2.1213,2.74491 1.07103,0.32089 3.34484,0.11307 4.55847,-0.41663 0.39737,-0.17343 0.46303,-0.0524 0.46303,0.85314 0,1.02783 -0.0305,1.06292 -1.1755,1.35123 -1.77062,0.44584 -4.09205,0.35657 -5.30683,-0.20408 z m 4.63024,-7.59007 c 0,-0.40081 -0.31875,-1.00057 -0.77341,-1.45521 -1.11834,-1.11835 -2.41953,-1.07298 -3.6187,0.12618 -0.49477,0.49478 -0.89959,1.14962 -0.89959,1.45521 0,0.52741 0.1344,0.55563 2.64585,0.55563 h 2.64585 z m 18.65323,7.59253 c -1.27226,-0.58422 -1.8184,-1.16317 -2.41003,-2.55478 -0.568,-1.33603 -0.56755,-4.63812 8.2e-4,-5.98073 1.09084,-2.57683 3.97162,-3.729477 7.12946,-2.85262 0.92802,0.25769 1.00094,0.34357 0.84118,0.99072 -0.25967,1.05187 -0.46668,1.15249 -1.77008,0.86039 -2.37185,-0.53154 -3.99702,0.50911 -4.33714,2.77721 -0.27135,1.80949 0.0797,3.46741 0.93738,4.42736 0.64884,0.72617 0.92525,0.84018 2.03179,0.83798 0.70443,-0.001 1.72727,-0.10279 2.27297,-0.2253 l 0.99219,-0.22276 v 0.9296 c 0,0.80481 -0.11187,0.9686 -0.83324,1.22007 -1.27526,0.44456 -3.65742,0.34293 -4.8553,-0.20714 z m 10.21719,0.0589 c -1.57176,-0.79956 -1.8703,-1.91862 -1.87701,-7.03578 l -0.006,-4.43177 h 1.12448 1.12448 v 4.38853 4.38854 l 0.74236,0.63855 c 1.32064,1.13597 3.66392,0.6777 4.41265,-0.86296 0.23777,-0.48925 0.40262,-2.09556 0.47722,-4.65005 l 0.11399,-3.90261 h 1.02949 1.0295 v 5.82083 5.82084 h -0.90822 c -0.67338,0 -0.95128,-0.13572 -1.07481,-0.52491 -0.16386,-0.51629 -0.17953,-0.51534 -0.9552,0.0581 -1.0682,0.78975 -3.94021,0.95037 -5.23312,0.29265 z m 12.1401,0.093 c -0.81101,-0.27657 -0.93625,-0.43905 -1.00816,-1.30798 -0.0924,-1.11691 -0.0601,-1.13079 1.40503,-0.60295 1.62812,0.58655 3.98238,0.52317 4.63021,-0.12466 0.29104,-0.29104 0.52917,-0.63217 0.52917,-0.75807 0,-0.64137 -1.24147,-1.64022 -2.82807,-2.27538 -2.35992,-0.94474 -3.18907,-1.57183 -3.48224,-2.63362 -0.73561,-2.66416 1.46222,-4.37355 5.18233,-4.03061 0.90758,0.0837 1.94,0.30557 2.29427,0.49313 0.60314,0.31932 0.62198,0.39339 0.29617,1.16447 l -0.34795,0.82347 -1.58824,-0.41379 c -1.1734,-0.30571 -1.85453,-0.34803 -2.60777,-0.16201 -0.90049,0.22238 -1.01955,0.34448 -1.01955,1.04554 0,0.73877 0.16934,0.87622 2.44471,1.98437 3.17156,1.54462 3.64071,2.02014 3.64071,3.6902 0,1.47101 -0.6965,2.46109 -2.17431,3.09078 -1.03412,0.44063 -4.09576,0.45039 -5.36631,0.0171 z m 13.43854,0.0841 c -2.6203,-0.78987 -4.12211,-4.08261 -3.40032,-7.45527 0.58208,-2.71986 2.12937,-4.14913 4.73256,-4.37159 2.94405,-0.2516 4.8948,1.5749 5.24332,4.90937 l 0.16961,1.62276 h -4.00644 c -3.97873,0 -4.00643,0.004 -4.00545,0.59531 0.001,0.87436 0.9185,2.22972 1.82625,2.69914 0.99867,0.51643 2.4809,0.52204 4.14998,0.0157 0.71435,-0.21671 1.33577,-0.3953 1.38094,-0.39688 0.0452,-0.002 0.0452,0.43372 0,0.96732 -0.0711,0.83961 -0.20676,1.01496 -1.00816,1.30279 -1.04269,0.3745 -3.99476,0.43917 -5.08229,0.11134 z m 4.16701,-7.87442 c -0.30282,-1.23163 -0.88703,-1.88491 -1.84664,-2.06493 -1.64874,-0.30931 -2.97101,0.53238 -3.45181,2.19723 -0.17066,0.59092 -0.1511,0.59531 2.65271,0.59531 h 2.82463 z m -95.657771,2.05052 v -5.82083 h 0.895183 c 0.660517,0 0.930039,0.13329 1.028149,0.50846 0.128017,0.48954 0.180074,0.48462 1.398616,-0.13229 2.228515,-1.128217 4.786147,-0.69228 6.051952,1.03154 0.496992,0.67682 0.556123,1.18761 0.635547,5.4901 l 0.08757,4.74386 h -1.056514 -1.056515 l -0.08939,-4.17969 c -0.07324,-3.42423 -0.172719,-4.30671 -0.55041,-4.88243 -0.937639,-1.42925 -3.776324,-1.17209 -4.625606,0.41905 -0.34416,0.64479 -0.471682,1.73715 -0.553403,4.74046 l -0.106189,3.90261 h -1.029496 -1.029496 z m 42.734931,2.88665 2.02878,-2.93418 -1.81047,-2.68821 c -0.99576,-1.47852 -1.85016,-2.77751 -1.89867,-2.88665 -0.0485,-0.10914 0.43673,-0.19844 1.07831,-0.19844 1.16351,0 1.16971,0.005 2.42355,1.98438 0.69138,1.0914 1.36389,1.98437 1.49445,1.98437 0.13056,0 0.80606,-0.89274 1.50112,-1.98386 l 1.26372,-1.98386 1.25038,-5.1e-4 1.25038,-5.2e-4 -1.88979,2.69961 c -1.03939,1.48479 -1.88979,2.83389 -1.88979,2.99801 0,0.16412 0.77486,1.41984 1.72191,2.79049 0.94705,1.37066 1.80737,2.64093 1.91181,2.82283 0.13975,0.2434 -0.1198,0.33073 -0.983,0.33073 h -1.17289 l -1.38964,-2.11667 c -0.7643,-1.16417 -1.46392,-2.11572 -1.55472,-2.11457 -0.0908,0.001 -0.80051,0.95365 -1.57713,2.11666 l -1.41206,2.11458 h -1.18751 -1.18752 z m -63.107846,2.087 c 0,-0.24767 0.506015,-0.79936 1.124479,-1.22597 2.014296,-1.38946 1.993961,-1.33545 2.24801,-5.9706 l 0.230302,-4.201887 0.778292,-0.622737 c 0.969417,-0.775657 1.810614,-0.784507 3.939741,-0.0414 l 1.673124,0.583927 2.052926,-1.386904 c 1.129109,-0.762794 2.175949,-1.345891 2.32631,-1.295771 0.150362,0.0501 0.400954,0.302557 0.556871,0.560967 0.237204,0.393137 0.07149,0.658077 -1.015008,1.622781 l -1.298494,1.152924 1.496931,0.66201 c 1.256201,0.55556 1.496932,0.77073 1.496932,1.33804 0,0.55386 -0.125926,0.67601 -0.696908,0.67601 -0.383299,0 -1.157973,-0.13813 -1.721497,-0.30697 -0.563525,-0.16884 -1.078988,-0.25258 -1.145473,-0.18609 -0.06649,0.0665 0.05509,0.70559 0.270163,1.42023 0.365562,1.21467 0.358504,1.33189 -0.108301,1.79869 -0.489407,0.48941 -0.50997,0.48795 -1.033018,-0.0735 -0.293519,-0.31505 -0.682931,-1.10593 -0.865359,-1.7575 -0.424019,-1.51445 -1.385118,-2.53159 -2.95786,-3.13033 -2.00664,-0.76392 -2.060497,-0.67837 -2.060497,3.27303 0,2.0308 0.124738,3.70921 0.305081,4.10502 0.167794,0.36827 0.9417,1.10804 1.719791,1.64393 2.384853,1.64251 2.108193,1.81243 -2.950913,1.81243 -3.934406,0 -4.365625,-0.0445 -4.365625,-0.45031 z m -3.699507,-5.36491 c -0.255987,-0.30844 -0.256533,-0.67548 -0.0026,-1.73407 0.177175,-0.73855 0.256901,-1.40805 0.177169,-1.48778 -0.07973,-0.0797 -0.759962,0.0593 -1.511622,0.30896 -1.229124,0.40825 -1.407559,0.41303 -1.773112,0.0475 -0.606109,-0.60611 -0.249685,-1.14103 1.275134,-1.91371 l 1.369511,-0.69399 -1.287206,-1.132674 c -1.129286,-0.993714 -1.243113,-1.185804 -0.927807,-1.565721 0.559295,-0.673907 1.116065,-0.527717 2.954915,0.775884 1.958467,1.388394 2.814309,1.436401 4.375743,0.24545 1.217437,-0.928587 1.176652,-1.673341 -0.15765,-2.878795 -1.027977,-0.928714 -1.120312,-0.956824 -3.142603,-0.956824 -1.578236,0 -2.167848,-0.10162 -2.43129,-0.419047 -0.568777,-0.685337 0.02733,-1.288114 1.368269,-1.383584 0.640023,-0.0456 1.260612,-0.178217 1.379086,-0.294777 0.118474,-0.11657 -0.148328,-0.785487 -0.592894,-1.486481 -0.750568,-1.183524 -0.777748,-1.308314 -0.380542,-1.747221 0.533851,-0.589897 1.064434,-0.343677 2.053344,0.952844 0.393794,0.516287 0.809936,0.938704 0.924759,0.938704 0.114823,0 0.366508,-0.477957 0.5593,-1.062114 0.405284,-1.228021 0.836639,-1.666448 1.507394,-1.532141 0.583164,0.11677 0.579748,0.822917 -0.0144,2.976835 l -0.433961,1.573191 1.05736,1.749988 c 1.329399,2.200218 1.370887,3.114845 0.197464,4.353206 -0.472942,0.499127 -1.395677,1.196877 -2.05052,1.550577 -1.336405,0.72182 -2.250683,1.88751 -2.653388,3.38305 -0.263105,0.97709 -0.867585,1.82402 -1.301864,1.82402 -0.117308,0 -0.35941,-0.17606 -0.538005,-0.39126 z m 8.464819,-8.935282 c 0.0015,-0.327417 0.476531,-1.190614 1.055521,-1.918218 0.57899,-0.727597 1.053974,-1.508151 1.055521,-1.734551 0.0015,-0.22641 -0.24709,-1.151644 -0.552525,-2.056078 -0.625679,-1.852731 -0.528908,-2.505265 0.352874,-2.379458 0.414925,0.0592 0.780942,0.479877 1.215741,1.397294 l 0.622089,1.312591 1.100545,-1.265201 c 0.7837,-0.900947 1.22796,-1.215814 1.54311,-1.093694 0.757365,0.293497 0.741159,0.831614 -0.06325,2.100028 -0.426906,0.673154 -0.776193,1.265601 -0.776193,1.316531 0,0.0509 0.649321,0.17375 1.442935,0.2729 1.113364,0.139107 1.480946,0.300047 1.609359,0.704644 0.308888,0.973217 -0.312535,1.292704 -2.514358,1.292704 h -2.043103 l -1.511771,1.322911 c -1.653647,1.447064 -2.5411,1.701631 -2.536499,0.727597 z"
       id="path1"
       sodipodi:nodetypes="sssssssssssssscsscccccssssccssssscssssssssscscssscccccccssscccccsscccsssssssssscsssssssssssscscsscsssssssscsccssssscccssssccccccsssssscccssssscscsccccssscsscsssscsssssssssssssssscssscscssssssscsssssssscsssssccsscssscssssssscsss" /></g></svg>
